<?xml version="1.0" standalone="no"?>
<!DOCTYPE svg PUBLIC "-//W3C//DTD SVG 20010904//EN"
 "http://www.w3.org/TR/2001/REC-SVG-20010904/DTD/svg10.dtd">
<svg version="1.0" xmlns="http://www.w3.org/2000/svg"
 width="512.000000pt" height="512.000000pt" viewBox="0 0 512.000000 512.000000"
 preserveAspectRatio="xMidYMid meet">
<metadata>
Created by potrace 1.14, written by Peter Selinger 2001-2017
</metadata>
<g transform="translate(0.000000,512.000000) scale(0.100000,-0.100000)"
fill="#000000" stroke="none">
<path d="M728 4845 c-2 -2 -21 -5 -43 -8 -85 -10 -144 -29 -242 -78 -146 -72
-267 -188 -346 -330 -33 -61 -74 -176 -84 -236 -4 -26 -8 -766 -8 -1643 0
-1293 3 -1605 13 -1650 38 -156 112 -288 221 -395 75 -73 125 -107 229 -157
140 -66 171 -70 579 -73 278 -2 371 0 400 10 138 48 224 157 229 291 6 134
-64 249 -185 307 -44 21 -60 22 -371 25 -203 1 -341 6 -368 13 -44 12 -86 51
-104 98 -6 16 -9 598 -9 1543 0 1693 -6 1559 69 1616 l35 27 331 3 c187 1 351
7 376 13 66 15 145 71 184 132 110 166 51 374 -132 464 l-57 28 -357 1 c-196
1 -358 0 -360 -1z"/>
<path d="M3697 4844 c-2 -2 -12 -5 -23 -7 -80 -13 -171 -89 -213 -177 -35 -74
-36 -190 -2 -264 29 -62 95 -128 158 -158 47 -22 58 -23 398 -28 307 -4 354
-7 382 -22 32 -18 64 -56 77 -93 13 -35 9 -3047 -4 -3080 -15 -40 -37 -63 -81
-86 -33 -16 -66 -18 -357 -19 -352 -1 -377 -4 -455 -59 -49 -36 -74 -65 -107
-131 -35 -68 -34 -185 2 -260 34 -71 84 -122 155 -157 l58 -28 340 -2 c383 -2
467 7 594 59 254 105 439 332 487 598 11 61 13 365 11 1660 -1 872 -6 1599
-10 1615 -4 17 -11 39 -14 50 -4 11 -7 22 -8 25 -1 16 -42 111 -63 150 -113
208 -304 347 -557 406 -30 7 -761 15 -768 8z"/>
<path d="M2360 4059 c-243 -23 -420 -80 -581 -190 -60 -40 -177 -162 -200
-207 -7 -15 -23 -43 -34 -62 -88 -147 -113 -387 -59 -574 18 -62 59 -149 97
-206 41 -60 141 -164 197 -205 108 -79 304 -161 535 -224 143 -39 198 -54 210
-57 42 -9 159 -41 259 -70 266 -78 359 -169 352 -343 -7 -180 -163 -331 -381
-371 -75 -14 -277 -18 -335 -6 -143 28 -225 69 -310 155 -53 53 -77 89 -123
183 -90 181 -138 207 -352 184 -94 -9 -147 -38 -194 -102 -59 -82 -59 -157 3
-302 53 -125 108 -214 193 -307 34 -39 138 -122 190 -153 134 -81 324 -139
518 -159 137 -13 428 -7 525 12 13 2 42 7 65 10 135 20 315 89 431 167 53 35
167 145 200 193 114 166 162 324 163 523 0 259 -71 441 -238 610 -98 99 -244
179 -461 251 -82 28 -478 136 -535 147 -46 8 -238 75 -298 103 -118 55 -178
142 -172 248 4 60 22 97 67 139 62 57 175 105 283 120 57 8 248 8 285 1 139
-29 222 -68 276 -131 20 -23 54 -76 76 -120 68 -129 131 -161 299 -152 129 6
171 20 224 73 79 77 90 166 37 292 -126 299 -417 485 -827 526 -97 10 -295 12
-385 4z"/>
</g>
</svg>
